<svg width="30" height="30" viewBox="0 0 30 30" fill="none" xmlns="http://www.w3.org/2000/svg">
<circle cx="15" cy="15" r="15" fill="#4E9FFF"/>
<path d="M19.6667 7H10.3333C8.49267 7 7 8.49267 7 10.3333V19.6667C7 21.5073 8.49267 23 10.3333 23H19.6667C21.508 23 23 21.5073 23 19.6667V10.3333C23 8.49267 21.508 7 19.6667 7ZM12.3333 19.6667H10.3333V12.3333H12.3333V19.6667ZM11.3333 11.488C10.6893 11.488 10.1667 10.9613 10.1667 10.312C10.1667 9.66267 10.6893 9.136 11.3333 9.136C11.9773 9.136 12.5 9.66267 12.5 10.312C12.5 10.9613 11.978 11.488 11.3333 11.488ZM20.3333 19.6667H18.3333V15.9307C18.3333 13.6853 15.6667 13.8553 15.6667 15.9307V19.6667H13.6667V12.3333H15.6667V13.51C16.5973 11.786 20.3333 11.6587 20.3333 15.1607V19.6667Z" fill="#080F26"/>
</svg>
