<svg width="112" height="22" viewBox="0 0 112 22" fill="none" xmlns="http://www.w3.org/2000/svg">
<path d="M11.1614 1.25927C10.0351 0.851861 8.80627 0.629639 7.40683 0.629639H0.0341328V1.5926H0.204797C0.682657 1.66668 1.05812 1.74075 1.36531 1.81482C1.63838 1.8889 1.84317 2.00001 1.9797 2.18519C2.11624 2.33334 2.21863 2.55556 2.25277 2.85186C2.2869 3.14816 2.32103 3.5926 2.32103 4.11112V16.963C2.32103 17.5926 2.2869 18.0741 2.25277 18.4445C2.21863 18.7778 2.11624 19.037 1.9797 19.2222C1.84317 19.4074 1.63838 19.5185 1.36531 19.5926C1.09225 19.6667 0.682657 19.7407 0.170664 19.7778H0V20.6667H8.02122V19.7407H7.85055C7.30443 19.7407 6.89483 19.6667 6.5535 19.5926C6.24631 19.5185 6.00738 19.4074 5.87085 19.2222C5.70018 19.0741 5.59779 18.8148 5.56365 18.5185C5.49539 18.1852 5.46125 17.7778 5.46125 17.2222V12.0741C5.76845 12.0741 6.00738 12.1111 6.24631 12.1111C6.51937 12.1111 6.82657 12.1111 7.1679 12.1111C8.26015 12.1111 9.21587 12.037 9.96679 11.8889C10.7518 11.7407 11.4345 11.4815 12.0489 11.1111C12.9022 10.6296 13.5507 9.92593 14.0286 9.03704C14.5065 8.18519 14.7454 7.22223 14.7454 6.18519C14.7454 4.96297 14.3699 3.85186 13.6531 2.92593C13.1411 2.25927 12.2878 1.70371 11.1614 1.25927ZM5.49539 2.96297C5.49539 2.48149 5.59778 2.29631 5.63192 2.25927C5.66605 2.22223 5.80258 2.11112 6.21218 2.11112C8.02122 2.11112 9.38653 2.44445 10.2399 3.14816C11.059 3.81482 11.4686 4.92593 11.4686 6.37038C11.4686 9.18519 9.96679 10.5556 6.8607 10.5556C6.58764 10.5556 6.34871 10.5556 6.14391 10.5185C5.97325 10.5185 5.73432 10.4815 5.49539 10.4445V2.96297Z" fill="white"/>
<path d="M22.6643 6.66668C22.3571 6.66668 22.084 6.70371 21.8109 6.81482C21.5379 6.92593 21.2648 7.07408 20.9918 7.29631C20.7187 7.51853 20.4456 7.81482 20.1726 8.18519C20.0019 8.44445 19.7971 8.70371 19.5582 9.03705V6.74075L19.2168 6.62964L19.1827 6.66668C18.8073 6.81482 18.4659 6.96297 18.1587 7.11112L17.2371 7.51853C16.9299 7.66668 16.5886 7.77779 16.2814 7.92593L15.0526 8.40742V9.22223L15.2574 9.14816C15.4281 9.11112 15.5988 9.07408 15.7353 9.03705C15.8718 9.03705 16.0084 9.00001 16.179 9.00001C16.4521 9.00001 16.6228 9.11112 16.7593 9.29631C16.8958 9.51853 16.9641 9.96297 16.9641 10.5926V18C16.9641 18.3333 16.9299 18.6296 16.8958 18.8519C16.8617 19.037 16.7934 19.1852 16.691 19.2963C16.5886 19.4074 16.3838 19.5185 16.1449 19.5926C15.906 19.7037 15.5305 19.7778 15.1209 19.8519L14.9844 19.8889V20.6296H21.9133V19.8519H21.7427C21.299 19.8519 20.9235 19.7778 20.6163 19.7037C20.3432 19.6296 20.1043 19.5185 19.9678 19.3704C19.8312 19.2222 19.7288 19.037 19.6606 18.8148C19.5923 18.5556 19.5582 18.2222 19.5582 17.8148V11.1482C19.5582 10.9259 19.6264 10.7037 19.7288 10.4445C19.8654 10.1852 20.0019 9.92594 20.1726 9.70371C20.3432 9.48149 20.548 9.29631 20.7528 9.11112C20.9235 8.96297 21.1283 8.8889 21.2648 8.8889C21.299 8.8889 21.3672 8.8889 21.5037 8.96297C21.6061 9.03705 21.7427 9.11112 21.8792 9.25927C22.1181 9.51853 22.3229 9.70371 22.5277 9.77779C22.7325 9.85186 22.9032 9.92593 23.108 9.92593C23.4835 9.92593 23.7906 9.77779 23.9954 9.51853C24.2002 9.25927 24.3368 8.8889 24.3368 8.40742C24.3368 7.8889 24.1661 7.48149 23.893 7.14816C23.5859 6.81482 23.1763 6.66668 22.6643 6.66668Z" fill="white"/>
<path d="M35.1908 15.5556C34.5423 16.6667 33.8938 17.4445 33.2794 17.8889C32.665 18.3334 31.9141 18.5556 31.0949 18.5556C29.6272 18.5556 28.5349 17.8149 27.784 16.2593C27.511 15.7037 27.3403 15.1111 27.2038 14.5186C27.1014 13.963 27.0331 13.2223 26.999 12.3704H35.4298L35.3956 12.1482C35.3274 11.7037 35.2591 11.2593 35.1908 10.8889C35.1226 10.5186 35.0543 10.1852 34.9519 9.88893C34.8495 9.59263 34.7471 9.29633 34.6447 9.03707C34.5082 8.77781 34.3717 8.51855 34.1669 8.2593C33.7231 7.70374 33.2111 7.2593 32.5968 6.963C31.9824 6.6667 31.2997 6.51855 30.5488 6.51855C29.6955 6.51855 28.8763 6.70374 28.1595 7.07411C27.4427 7.44448 26.7942 7.963 26.2822 8.62967C25.7702 9.29633 25.3606 10.1111 25.0875 11.0371C24.8145 11.963 24.6438 13 24.6438 14.0741C24.6438 15.1111 24.7803 16.0741 25.0193 16.8889C25.2582 17.7408 25.6337 18.4445 26.0774 19.0371C26.5552 19.6297 27.1014 20.0741 27.7499 20.4074C28.3984 20.7408 29.1493 20.8889 29.9344 20.8889C31.2997 20.8889 32.4944 20.4445 33.5183 19.5926C34.5082 18.7408 35.3274 17.4815 35.9076 15.8149L35.9759 15.6297L35.2591 15.3334L35.1908 15.5556ZM27.0672 11.0741C27.2038 10.0371 27.511 9.2593 27.9206 8.77781C28.3643 8.29633 28.9787 8.03707 29.7637 8.03707C30.5488 8.03707 31.129 8.2593 31.4704 8.70374C31.8117 9.14818 32.0848 9.92596 32.2554 11.0741H27.0672Z" fill="white"/>
<path d="M49.4244 18.6296C49.322 18.6296 49.2196 18.6296 49.1513 18.6296C48.7076 18.6296 48.4345 18.5556 48.298 18.3704C48.1956 18.2593 48.0932 17.9259 48.0932 17.1111V0.148148L47.8201 0L47.7519 0.037037C47.4105 0.185185 47.1033 0.296296 46.7961 0.407407C46.4889 0.518519 46.2159 0.592593 45.8745 0.703704C45.5674 0.814815 45.226 0.888889 44.8847 1C44.5434 1.11111 44.1338 1.22222 43.7242 1.33333L43.5876 1.37037V2.22222L43.7924 2.18519C43.8948 2.18519 43.9972 2.14815 44.0996 2.14815C44.1679 2.14815 44.2703 2.14815 44.3727 2.14815C44.953 2.14815 45.1578 2.2963 45.2602 2.40741C45.3626 2.51852 45.465 2.81481 45.465 3.51852V7.7037C45.0212 7.33333 44.6458 7.07407 44.2703 6.92593C43.8266 6.74074 43.3146 6.62963 42.7343 6.62963C41.9151 6.62963 41.1642 6.85185 40.4474 7.25926C39.7306 7.66667 39.1162 8.22222 38.5701 8.96296C38.0581 9.66667 37.6144 10.5185 37.3072 11.4444C37 12.3704 36.8293 13.4074 36.8293 14.4815C36.8293 15.4444 36.9659 16.3333 37.2048 17.1481C37.4437 17.963 37.8192 18.6296 38.2629 19.2222C38.7067 19.8148 39.2869 20.2593 39.9354 20.5556C40.584 20.8519 41.3007 21.037 42.0858 21.037C42.8709 21.037 43.5535 20.8889 44.1338 20.5556C44.5775 20.2963 45.0212 19.9259 45.3967 19.4074V20.8889L45.6697 21.0741L49.9022 19.4815V18.7037H49.7316C49.6633 18.5926 49.5609 18.6296 49.4244 18.6296ZM45.465 10.5926V17.4815C45.465 17.5556 45.4308 17.7778 45.0895 18.1852C44.6458 18.7778 44.0314 19.0741 43.2122 19.0741C42.6661 19.0741 42.1882 18.9259 41.7445 18.6667C41.3007 18.4074 40.9253 18 40.6181 17.5185C40.3109 17 40.072 16.4074 39.9013 15.6667C39.7306 14.9259 39.6282 14.1111 39.6282 13.2222C39.6282 12.4074 39.6965 11.6667 39.8672 11C40.0378 10.3333 40.2426 9.77778 40.5157 9.2963C40.7888 8.81481 41.1301 8.44444 41.5397 8.22222C41.9493 7.96296 42.393 7.85185 42.8709 7.85185C43.2122 7.85185 43.5535 7.92593 43.8607 8.07407C44.1679 8.22222 44.4751 8.44444 44.714 8.7037C44.953 8.96296 45.1578 9.25926 45.2943 9.59259C45.3967 9.88889 45.465 10.2222 45.465 10.5926Z" fill="white"/>
<path d="M53.5204 3.44444C53.9983 3.44444 54.3737 3.2963 54.6468 2.96296C54.9198 2.62963 55.0905 2.22222 55.0905 1.74074C55.0905 1.25926 54.9198 0.851852 54.6468 0.518519C54.3396 0.185185 53.9641 0 53.5545 0C53.1108 0 52.7695 0.185185 52.4623 0.518519C52.1551 0.851852 52.0186 1.25926 52.0186 1.74074C52.0186 2.22222 52.1551 2.62963 52.4623 2.96296C52.7012 3.25926 53.0767 3.44444 53.5204 3.44444Z" fill="white"/>
<path d="M55.9096 19.7408C55.6706 19.6667 55.5 19.5926 55.3976 19.4074C55.261 19.2593 55.1928 19.037 55.1586 18.7407C55.1245 18.4445 55.0904 18 55.0904 17.4815V6.81482L54.8173 6.62964L50.4142 8.33334V9.11112L50.8238 9.07408C50.9944 9.03705 51.1651 9.00001 51.3358 9.00001C51.5064 9.00001 51.6429 8.96297 51.7795 8.96297C52.0525 8.96297 52.2232 9.07408 52.3256 9.25927C52.4621 9.51853 52.4963 9.92594 52.4963 10.5556V17.4445C52.4963 17.963 52.4621 18.4074 52.428 18.7037C52.3939 19 52.2915 19.2222 52.1549 19.3704C52.0184 19.5185 51.8477 19.6296 51.5747 19.7037C51.3016 19.7778 50.9262 19.8519 50.4824 19.8519H50.3118V20.6296H57.1725V19.8519H57.0359C56.5239 19.8519 56.1826 19.8148 55.9096 19.7408Z" fill="white"/>
<path d="M68.4021 15.7777C67.7536 16.7777 67.1392 17.5185 66.5931 17.8888C66.0469 18.2592 65.3984 18.4814 64.6475 18.4814C64.0672 18.4814 63.487 18.3333 63.0091 18.074C62.4971 17.8148 62.0875 17.4073 61.7462 16.9259C61.4049 16.4444 61.0977 15.8518 60.927 15.1481C60.7222 14.4444 60.6198 13.7036 60.6198 12.8888C60.6198 12.1481 60.7222 11.4444 60.8929 10.8148C61.0636 10.1851 61.3025 9.6666 61.6097 9.18512C61.9169 8.74068 62.2923 8.40734 62.7019 8.14809C63.1457 7.92586 63.6235 7.77771 64.1355 7.77771C64.5792 7.77771 64.9206 7.85179 65.1254 8.03697C65.3302 8.18512 65.5008 8.55549 65.6032 9.07401L65.7739 9.74068C65.8763 10.1851 66.0811 10.5925 66.32 10.8518C66.5931 11.1481 66.9003 11.2962 67.2757 11.2962C67.6853 11.2962 68.0266 11.1481 68.2997 10.8518C68.5728 10.5555 68.7093 10.2222 68.7093 9.81475C68.7093 9.37031 68.5728 8.92586 68.3338 8.51846C68.0949 8.11105 67.7877 7.77772 67.3781 7.48142C66.9685 7.18512 66.5248 6.9629 65.9787 6.77771C64.8523 6.40734 63.5211 6.44438 62.2923 6.92586C61.6438 7.18512 61.0294 7.59253 60.4492 8.07401C59.6982 8.74068 59.118 9.62957 58.7084 10.7036C58.2988 11.7407 58.094 12.9259 58.094 14.1851C58.094 15.1851 58.2305 16.074 58.5036 16.8888C58.7766 17.7036 59.118 18.4073 59.5958 19.037C60.0737 19.6296 60.654 20.111 61.3025 20.4444C61.951 20.7777 62.7019 20.9259 63.4528 20.9259C64.6475 20.9259 65.7739 20.4814 66.7637 19.6296C66.9685 19.4444 67.1733 19.2592 67.3781 19.037C67.5488 18.8148 67.7536 18.5555 67.9242 18.2962C68.0949 18.037 68.2656 17.7036 68.4704 17.3703C68.641 17.037 68.8458 16.6296 69.0848 16.1481L69.153 15.9999L68.5045 15.5555L68.4021 15.7777Z" fill="white"/>
<path d="M77.0036 18.1111C76.6964 18.4815 76.4234 18.7407 76.2186 18.8889C76.0138 19.037 75.7407 19.074 75.4676 19.074C75.0239 19.074 74.7167 18.8889 74.5461 18.5555C74.3413 18.1852 74.2389 17.5185 74.2389 16.5926V8.25923H77.0378V6.96294H74.2389V3.70368C74.2389 3.51849 74.2389 3.40738 74.1706 3.29627C74.1023 3.18516 73.9999 3.11108 73.8975 3.11108H73.761L73.7269 3.2222C73.6586 3.37034 73.5562 3.51849 73.4879 3.6296C73.3855 3.77775 73.2831 3.9259 73.2149 4.03701C72.1909 5.66664 71.3034 6.74071 70.5866 7.14812C70.2112 7.40738 70.0405 7.6296 70.0405 7.88886C70.0405 8.18516 70.2112 8.22219 70.2795 8.25923H71.5765V17.037C71.5765 19.6666 72.464 21 74.1706 21C75.57 21 76.7306 20.2222 77.618 18.7037L77.6863 18.5926L77.1402 18L77.0036 18.1111Z" fill="white"/>
<path d="M88.5065 15.5556C87.858 16.6667 87.2095 17.4445 86.5951 17.8889C85.9807 18.3334 85.2298 18.5556 84.4106 18.5556C82.9429 18.5556 81.8506 17.8149 81.0997 16.2593C80.8266 15.7037 80.656 15.1111 80.5194 14.5186C80.417 13.963 80.3488 13.2223 80.3146 12.3704H88.7454L88.7113 12.1482C88.643 11.7037 88.5748 11.2593 88.5065 10.8889C88.4383 10.5186 88.37 10.1852 88.2676 9.88893C88.1652 9.59263 88.0628 9.29633 87.9604 9.03707C87.8239 8.77781 87.6873 8.51855 87.4825 8.2593C87.0388 7.70374 86.5268 7.2593 85.9124 6.963C85.298 6.6667 84.6154 6.51855 83.8645 6.51855C83.0111 6.51855 82.1919 6.70374 81.4752 7.07411C80.7584 7.44448 80.1098 7.963 79.5979 8.62967C79.0859 9.29633 78.6763 10.1111 78.4032 11.0371C78.1301 11.963 77.9595 13 77.9595 14.0741C77.9595 15.1111 78.096 16.0741 78.3349 16.8889C78.5739 17.7408 78.9493 18.4445 79.3931 19.0371C79.8709 19.6297 80.417 20.0741 81.0656 20.4074C81.7141 20.7408 82.465 20.8889 83.2501 20.8889C84.6154 20.8889 85.81 20.4445 86.834 19.5926C87.8239 18.7408 88.643 17.4815 89.2233 15.8149L89.2916 15.6297L88.5748 15.3334L88.5065 15.5556ZM80.3829 11.0741C80.5194 10.0371 80.8266 9.2593 81.2362 8.77781C81.6799 8.29633 82.2943 8.03707 83.0794 8.03707C83.8645 8.03707 84.4447 8.2593 84.786 8.70374C85.1274 9.14818 85.4004 9.92596 85.5711 11.0741H80.3829Z" fill="white"/>
<path d="M97.2785 6.66668C96.9713 6.66668 96.6982 6.70371 96.4252 6.81482C96.1521 6.92593 95.879 7.07408 95.606 7.29631C95.3329 7.51853 95.0598 7.81482 94.7868 8.18519C94.6161 8.44445 94.4113 8.70371 94.1724 9.03705V6.74075L93.8311 6.62964L93.7628 6.66668C93.3873 6.81482 93.046 6.96297 92.7388 7.11112L91.8172 7.51853C91.51 7.66668 91.1687 7.77779 90.8615 7.92593L89.6327 8.40742V9.22223L89.8375 9.14816C90.0082 9.11112 90.1788 9.07408 90.3154 9.03705C90.4519 9.03705 90.5884 9.00001 90.7591 9.00001C91.0322 9.00001 91.2028 9.11112 91.3394 9.29631C91.4759 9.51853 91.5442 9.96297 91.5442 10.5926V18C91.5442 18.3333 91.51 18.6296 91.4759 18.8519C91.4418 19.037 91.3735 19.1852 91.2711 19.2963C91.1687 19.4074 90.9639 19.5185 90.725 19.5926C90.486 19.7037 90.1106 19.7778 89.701 19.8519L89.5645 19.8889V20.6296H96.4934V19.8519H96.3228C95.879 19.8519 95.5036 19.7778 95.1964 19.7037C94.9233 19.6296 94.6844 19.5185 94.5479 19.3704C94.4113 19.2222 94.3089 19.037 94.2407 18.8148C94.1724 18.5556 94.1383 18.2222 94.1383 17.8148V11.1482C94.1383 10.9259 94.2065 10.7037 94.3089 10.4445C94.4455 10.1852 94.582 9.92594 94.7526 9.70371C94.9233 9.48149 95.1281 9.29631 95.3329 9.11112C95.5036 8.96297 95.6742 8.8889 95.8449 8.8889C95.879 8.8889 95.9473 8.8889 96.0838 8.96297C96.1862 9.03705 96.3228 9.11112 96.4593 9.25927C96.6982 9.51853 96.903 9.70371 97.1078 9.77779C97.3126 9.85186 97.4833 9.92593 97.6881 9.92593C98.0635 9.92593 98.3707 9.77779 98.5755 9.51853C98.7803 9.25927 98.9169 8.8889 98.9169 8.40742C98.9169 7.8889 98.7462 7.48149 98.4731 7.14816C98.2001 6.81482 97.7905 6.66668 97.2785 6.66668Z" fill="white"/>
<path d="M110.761 18.4444C110.352 18.7777 109.976 18.9629 109.669 18.9629C109.328 18.9629 109.225 18.8148 109.191 18.7036C109.123 18.5555 109.054 18.1851 109.054 17.4073V11.5555C109.054 10.7777 109.02 10.111 108.918 9.6666C108.85 9.18512 108.679 8.74068 108.474 8.40734C108.167 7.85179 107.689 7.40734 107.109 7.07401C106.529 6.74068 105.778 6.59253 104.924 6.59253C104.208 6.59253 103.491 6.70364 102.876 6.88883C102.228 7.07401 101.716 7.37031 101.34 7.74068C100.965 8.07401 100.692 8.44438 100.487 8.85179C100.282 9.2592 100.18 9.70364 100.18 10.111C100.18 10.5185 100.316 10.8518 100.59 11.1481C100.863 11.4444 101.17 11.5925 101.545 11.5925C101.921 11.5925 102.228 11.4444 102.501 11.1851C102.774 10.8888 102.945 10.5555 102.945 10.1481C102.945 9.99994 102.911 9.77771 102.876 9.51846C102.842 9.29623 102.808 9.11105 102.808 8.9629C102.808 8.62957 102.979 8.33327 103.286 8.07401C103.627 7.81475 104.071 7.6666 104.583 7.6666C105.197 7.6666 105.675 7.85179 106.017 8.22216C106.358 8.59253 106.494 9.18512 106.494 9.9629V11.7407C105.505 12.1851 104.685 12.5555 104.071 12.8148C103.423 13.111 102.911 13.3333 102.501 13.5555C102.091 13.7777 101.75 13.9999 101.511 14.1851C101.272 14.3703 100.999 14.6296 100.692 14.9259C100.351 15.2222 100.078 15.6666 99.9069 16.1481C99.7362 16.6296 99.6338 17.1481 99.6338 17.6296C99.6338 18.6296 99.9069 19.4444 100.487 20.037C101.067 20.6666 101.818 20.9629 102.706 20.9629C103.32 20.9629 103.969 20.7777 104.617 20.4073C105.197 20.074 105.846 19.5925 106.597 18.9259C106.665 19.5925 106.836 20.074 107.109 20.3703C107.416 20.7407 107.86 20.9259 108.474 20.9259C108.952 20.9259 109.396 20.8147 109.771 20.5925C110.147 20.3703 110.556 19.9629 111.034 19.4073L111.068 19.3703V18.1481L110.761 18.4444ZM106.46 12.8518V16.8888C106.46 17.2962 106.426 17.6296 106.358 17.8148C106.29 17.9999 106.119 18.1481 105.812 18.3333C105.505 18.5185 105.163 18.6666 104.822 18.8148C104.208 19.037 103.73 19.074 103.286 18.8518C103.081 18.7407 102.911 18.5925 102.74 18.4073C102.603 18.2222 102.467 17.9999 102.364 17.7407C102.262 17.4814 102.228 17.1851 102.228 16.8888V16.7407C102.228 16.3333 102.296 15.9629 102.467 15.6296C102.603 15.2962 102.876 14.9629 103.218 14.6666C103.559 14.3703 104.037 14.037 104.583 13.7407C105.129 13.4073 105.744 13.1481 106.46 12.8518Z" fill="white"/>
</svg>
