<svg width="30" height="30" viewBox="0 0 30 30" fill="none" xmlns="http://www.w3.org/2000/svg">
<circle cx="15" cy="15" r="15" fill="#4E9FFF"/>
<path d="M19.6667 7H10.3333C8.49267 7 7 8.49267 7 10.3333V19.6667C7 21.5073 8.49267 23 10.3333 23H19.6667C21.508 23 23 21.5073 23 19.6667V10.3333C23 8.49267 21.508 7 19.6667 7ZM19.574 13.158C19.7133 16.236 17.418 19.668 13.354 19.668C12.118 19.668 10.968 19.306 9.99933 18.6847C11.1607 18.8213 12.3193 18.4993 13.2393 17.7787C12.2813 17.7607 11.4733 17.128 11.1953 16.2587C11.5387 16.324 11.876 16.3047 12.1833 16.2213C11.1307 16.01 10.4047 15.062 10.428 14.048C10.7227 14.212 11.0607 14.3107 11.4187 14.322C10.4447 13.6707 10.1687 12.384 10.7413 11.4C11.8207 12.724 13.4333 13.5953 15.252 13.6867C14.9327 12.318 15.972 11 17.3847 11C18.0133 11 18.5827 11.2653 18.9813 11.6913C19.48 11.5933 19.9487 11.4113 20.372 11.1607C20.208 11.672 19.8613 12.1007 19.41 12.3713C19.8527 12.318 20.2747 12.2007 20.6667 12.0267C20.374 12.464 20.0027 12.8493 19.574 13.158Z" fill="black"/>
</svg>
